<svg xmlns="http://www.w3.org/2000/svg" xmlns:xlink="http://www.w3.org/1999/xlink" fill="none" version="1.1" width="1920" height="440" viewBox="0 0 1920 440">
    <defs>
        <clipPath id="master_svg0_9_4578">
            <rect x="0" y="0" width="1920" height="440" rx="0"/>
        </clipPath>
    </defs>
    <g clip-path="url(#master_svg0_9_4578)">
        <rect x="0" y="0" width="1920" height="440" rx="0" fill="#018F86" fill-opacity="1"/>
        <g>
            <path d="M1214,883.5C1214,883.5,1920,-0.5,1920,-0.5C1920,-0.5,1920,883.5,1920,883.5C1920,883.5,1214,883.5,1214,883.5C1214,883.5,1214,883.5,1214,883.5Z" fill="#233C49" fill-opacity="1"/>
        </g>
        <g>
            <path d="M1920.5,-199.5C1920.5,-199.5,1711.5,-199.5,1711.5,-199.5C1711.5,-199.5,848.5,879.5,848.5,879.5C848.5,879.5,1219,879.5,1219,879.5C1219,879.5,1920.5,0,1920.5,0C1920.5,0,1920.5,-199.5,1920.5,-199.5C1920.5,-199.5,1920.5,-199.5,1920.5,-199.5Z" fill="#2B4F5E" fill-opacity="1"/>
        </g>
        <g>
            <path d="M855.5,879.5C855.5,879.5,1710.5,-199.5,1710.5,-199.5C1710.5,-199.5,1348,-199.5,1348,-199.5C1348,-199.5,485,879.5,485,879.5C485,879.5,855.5,879.5,855.5,879.5C855.5,879.5,855.5,879.5,855.5,879.5Z" fill="#066C7C" fill-opacity="1"/>
        </g>
    </g>
</svg>