<svg xmlns="http://www.w3.org/2000/svg" xmlns:xlink="http://www.w3.org/1999/xlink" fill="none" version="1.1" width="607.38671875" height="746.697509765625" viewBox="0 0 607.38671875 746.697509765625"><g><g><g><path d="M348.00725283203127,626.3575625C348.00725283203127,626.3575625,329.06915283203125,626.3575625,329.06915283203125,626.3575625C329.06915283203125,601.2596625,349.41465283203127,580.9140625,374.51255283203125,580.9140625C374.51255283203125,580.9140625,446.47715283203127,580.9140625,446.47715283203127,580.9140625C446.47715283203127,580.9140625,446.47715283203127,599.8521625,446.47715283203127,599.8521625C446.47715283203127,599.8521625,374.51255283203125,599.8521625,374.51255283203125,599.8521625C359.87605283203123,599.8442625,348.00725283203127,611.7131625,348.00725283203127,626.3575625C348.00725283203127,626.3575625,348.00725283203127,626.3575625,348.00725283203127,626.3575625Z" fill="#6DB33F" fill-opacity="1"/></g><g><path d="M224.17050009765626,114.03168328857421C230.17960009765625,114.03168328857421,235.05100009765624,109.16028328857422,235.05100009765624,103.15118328857422C235.05100009765624,97.14204328857421,230.17960009765625,92.27068328857422,224.17050009765626,92.27068328857422C218.16137009765626,92.27068328857422,213.29010009765625,97.14204328857421,213.29010009765625,103.15118328857422C213.29010009765625,109.16028328857422,218.16137009765626,114.03168328857421,224.17050009765626,114.03168328857421C224.17050009765626,114.03168328857421,224.17050009765626,114.03168328857421,224.17050009765626,114.03168328857421Z" fill="#6DB33F" fill-opacity="1"/></g><g><g><path d="M188.19977978515624,0.07907816767692566C188.19977978515624,0.07907816767692566,169.26177978515625,0.07907816767692566,169.26177978515625,0.07907816767692566C169.26177978515625,25.176978167676925,189.60727978515627,45.52247816767692,214.70517978515625,45.52247816767692C214.70517978515625,45.52247816767692,286.66977978515627,45.52247816767692,286.66977978515627,45.52247816767692C286.66977978515627,45.52247816767692,286.66977978515627,26.584478167676927,286.66977978515627,26.584478167676927C286.66977978515627,26.584478167676927,214.70517978515625,26.584478167676927,214.70517978515625,26.584478167676927C200.06077978515626,26.584478167676927,188.19977978515624,14.715578167676926,188.19977978515624,0.07907816767692566C188.19977978515624,0.07907816767692566,188.19977978515624,0.07907816767692566,188.19977978515624,0.07907816767692566Z" fill="#000000" fill-opacity="1"/></g><g><path d="M446.47711181640625,503.4362384277344C446.47711181640625,503.4362384277344,446.47711181640625,484.4981384277344,446.47711181640625,484.4981384277344C471.57501181640623,484.4981384277344,491.9206118164062,504.84373842773437,491.9206118164062,529.9416384277343C491.9206118164062,529.9416384277343,491.9206118164062,601.9061384277344,491.9206118164062,601.9061384277344C491.9206118164062,601.9061384277344,472.98251181640626,601.9061384277344,472.98251181640626,601.9061384277344C472.98251181640626,601.9061384277344,472.98251181640626,529.9416384277343,472.98251181640626,529.9416384277343C472.99041181640627,515.3051384277344,461.12151181640627,503.4362384277344,446.47711181640625,503.4362384277344C446.47711181640625,503.4362384277344,446.47711181640625,503.4362384277344,446.47711181640625,503.4362384277344Z" fill="#000000" fill-opacity="1"/></g><g><path d="M433.22446689453125,546.989875390625C433.22446689453125,546.989875390625,433.22446689453125,565.927775390625,433.22446689453125,565.927775390625C408.12656689453127,565.927775390625,387.78106689453125,545.582275390625,387.78106689453125,520.484475390625C387.78106689453125,520.484475390625,387.78106689453125,448.519775390625,387.78106689453125,448.519775390625C387.78106689453125,448.519775390625,406.71916689453127,448.519775390625,406.71916689453127,448.519775390625C406.71916689453127,448.519775390625,406.71916689453127,520.484475390625,406.71916689453127,520.484475390625C406.71126689453126,535.128775390625,418.5800668945312,546.989875390625,433.22446689453125,546.989875390625C433.22446689453125,546.989875390625,433.22446689453125,546.989875390625,433.22446689453125,546.989875390625Z" fill="#000000" fill-opacity="1"/></g><g><path d="M374.52036533203125,98.4701C374.52036533203125,98.4701,374.52036533203125,117.408,374.52036533203125,117.408C349.42246533203127,117.408,329.07696533203125,97.0625,329.07696533203125,71.9647C329.07696533203125,71.9647,329.07696533203125,0,329.07696533203125,0C329.07696533203125,0,348.01506533203127,0,348.01506533203127,0C348.01506533203127,0,348.01506533203127,71.9647,348.01506533203127,71.9647C348.00716533203126,86.609,359.8759653320312,98.4701,374.52036533203125,98.4701C374.52036533203125,98.4701,374.52036533203125,98.4701,374.52036533203125,98.4701Z" fill="#000000" fill-opacity="1"/></g><g><path d="M561.6000551757812,302.69273254394534C561.6000551757812,302.69273254394534,561.6000551757812,321.6307325439453,561.6000551757812,321.6307325439453C536.5021551757812,321.6307325439453,516.1565551757812,301.2852325439453,516.1565551757812,276.18733254394533C516.1565551757812,276.18733254394533,516.1565551757812,204.2227325439453,516.1565551757812,204.2227325439453C516.1565551757812,204.2227325439453,535.0946551757812,204.2227325439453,535.0946551757812,204.2227325439453C535.0946551757812,204.2227325439453,535.0946551757812,276.18733254394533,535.0946551757812,276.18733254394533C535.0946551757812,290.8317325439453,546.9635551757813,302.69273254394534,561.6000551757812,302.69273254394534C561.6000551757812,302.69273254394534,561.6000551757812,302.69273254394534,561.6000551757812,302.69273254394534Z" fill="#000000" fill-opacity="1"/></g><g><path d="M312.02873720703127,298.9130554199219C312.02873720703127,298.9130554199219,293.09063720703125,298.9130554199219,293.09063720703125,298.9130554199219C293.09063720703125,324.01095541992186,313.43613720703127,344.35655541992185,338.53403720703125,344.35655541992185C338.53403720703125,344.35655541992185,410.49863720703127,344.35655541992185,410.49863720703127,344.35655541992185C410.49863720703127,344.35655541992185,410.49863720703127,325.4184554199219,410.49863720703127,325.4184554199219C410.49863720703127,325.4184554199219,338.53403720703125,325.4184554199219,338.53403720703125,325.4184554199219C323.89753720703123,325.4184554199219,312.02873720703127,313.5495554199219,312.02873720703127,298.9130554199219C312.02873720703127,298.9130554199219,312.02873720703127,298.9130554199219,312.02873720703127,298.9130554199219Z" fill="#000000" fill-opacity="1"/></g><g><path d="M474.10541494140625,240.20901489257812C474.10541494140625,240.20901489257812,493.04331494140627,240.20901489257812,493.04331494140627,240.20901489257812C493.04331494140627,265.3069148925781,472.69781494140625,285.6525148925781,447.60001494140624,285.6525148925781C447.60001494140624,285.6525148925781,375.63531494140625,285.6525148925781,375.63531494140625,285.6525148925781C375.63531494140625,285.6525148925781,375.63531494140625,266.71441489257813,375.63531494140625,266.71441489257813C375.63531494140625,266.71441489257813,447.60001494140624,266.71441489257813,447.60001494140624,266.71441489257813C462.2364149414062,266.71441489257813,474.10541494140625,254.84551489257814,474.10541494140625,240.20901489257812C474.10541494140625,240.20901489257812,474.10541494140625,240.20901489257812,474.10541494140625,240.20901489257812Z" fill="#000000" fill-opacity="1"/></g><g><path d="M446.47711181640625,111.20878328857421C446.47711181640625,111.20878328857421,446.47711181640625,92.27068328857422,446.47711181640625,92.27068328857422C471.57501181640623,92.27068328857422,491.9206118164062,112.61628328857422,491.9206118164062,137.71408328857422C491.9206118164062,137.71408328857422,491.9206118164062,209.67868328857423,491.9206118164062,209.67868328857423C491.9206118164062,209.67868328857423,472.98251181640626,209.67868328857423,472.98251181640626,209.67868328857423C472.98251181640626,209.67868328857423,472.98251181640626,137.71408328857422,472.98251181640626,137.71408328857422C472.99041181640627,123.06978328857421,461.12151181640627,111.20878328857421,446.47711181640625,111.20878328857421C446.47711181640625,111.20878328857421,446.47711181640625,111.20878328857421,446.47711181640625,111.20878328857421Z" fill="#000000" fill-opacity="1"/></g><g><path d="M457.99810791015625,340.5689288574219C457.99810791015625,340.5689288574219,457.99810791015625,321.6308288574219,457.99810791015625,321.6308288574219C483.09600791015623,321.6308288574219,503.4416079101562,341.97642885742187,503.4416079101562,367.07432885742185C503.4416079101562,367.07432885742185,503.4416079101562,439.0388288574219,503.4416079101562,439.0388288574219C503.4416079101562,439.0388288574219,484.50350791015626,439.0388288574219,484.50350791015626,439.0388288574219C484.50350791015626,439.0388288574219,484.50350791015626,367.07432885742185,484.50350791015626,367.07432885742185C484.51140791015627,352.4378288574219,472.64250791015627,340.5689288574219,457.99810791015625,340.5689288574219C457.99810791015625,340.5689288574219,457.99810791015625,340.5689288574219,457.99810791015625,340.5689288574219Z" fill="#000000" fill-opacity="1"/></g><g><path d="M418.23235048828127,92.27073236083984C418.23235048828127,92.27073236083984,399.29425048828125,92.27073236083984,399.29425048828125,92.27073236083984C399.29425048828125,67.17283236083985,419.63975048828127,46.827232360839844,444.73765048828125,46.827232360839844C444.73765048828125,46.827232360839844,516.7022504882813,46.827232360839844,516.7022504882813,46.827232360839844C516.7022504882813,46.827232360839844,516.7022504882813,65.76533236083984,516.7022504882813,65.76533236083984C516.7022504882813,65.76533236083984,444.73765048828125,65.76533236083984,444.73765048828125,65.76533236083984C430.10115048828123,65.75743236083984,418.23235048828127,77.62633236083984,418.23235048828127,92.27073236083984C418.23235048828127,92.27073236083984,418.23235048828127,92.27073236083984,418.23235048828127,92.27073236083984Z" fill="#000000" fill-opacity="1"/></g><g><path d="M359.52814892578124,439.038958984375C359.52814892578124,439.038958984375,340.59014892578125,439.038958984375,340.59014892578125,439.038958984375C340.59014892578125,413.941058984375,360.93564892578127,393.595458984375,386.03354892578125,393.595458984375C386.03354892578125,393.595458984375,457.99814892578127,393.595458984375,457.99814892578127,393.595458984375C457.99814892578127,393.595458984375,457.99814892578127,412.533558984375,457.99814892578127,412.533558984375C457.99814892578127,412.533558984375,386.03354892578125,412.533558984375,386.03354892578125,412.533558984375C371.39704892578123,412.533558984375,359.52814892578124,424.402458984375,359.52814892578124,439.038958984375C359.52814892578124,439.038958984375,359.52814892578124,439.038958984375,359.52814892578124,439.038958984375Z" fill="#000000" fill-opacity="1"/></g><g><path d="M210.09521259765626,194.41757346191406C210.09521259765626,194.41757346191406,191.17291259765625,193.70597346191406,191.17291259765625,193.70597346191406C192.11388559765626,168.62387346191406,213.21071259765625,149.06114546191407,238.29281259765625,149.99421046191407C238.29281259765625,149.99421046191407,310.20191259765625,152.69061346191407,310.20191259765625,152.69061346191407C310.20191259765625,152.69061346191407,309.48991259765626,171.61287346191406,309.48991259765626,171.61287346191406C309.48991259765626,171.61287346191406,237.58111259765624,168.91647346191405,237.58111259765624,168.91647346191405C222.94461259765626,168.37087346191407,210.64081259765624,179.78117346191405,210.09521259765626,194.41757346191406C210.09521259765626,194.41757346191406,210.09521259765626,194.41757346191406,210.09521259765626,194.41757346191406Z" fill="#000000" fill-opacity="1"/></g><g><path d="M532.9833293945312,520.4844360351562C520.4343293945312,520.4844360351562,510.25762939453125,530.6611360351562,510.25762939453125,543.2101360351562C510.25762939453125,555.7590360351562,520.4343293945312,565.9357360351562,532.9833293945312,565.9357360351562C545.5322293945312,565.9357360351562,555.7089293945312,555.7590360351562,555.7089293945312,543.2101360351562C555.7089293945312,530.6532360351563,545.5322293945312,520.4844360351562,532.9833293945312,520.4844360351562C532.9833293945312,520.4844360351562,532.9833293945312,520.4844360351562,532.9833293945312,520.4844360351562ZM532.9833293945312,556.4628360351562C525.6611293945313,556.4628360351562,519.7305993945313,550.5323360351563,519.7305993945313,543.2101360351562C519.7305993945313,535.8879360351563,525.6690293945312,529.9574060351563,532.9833293945312,529.9574060351563C540.3055293945313,529.9574060351563,546.2360293945312,535.8879360351563,546.2360293945312,543.2101360351562C546.2439293945313,550.5244360351562,540.3055293945313,556.4628360351562,532.9833293945312,556.4628360351562C532.9833293945312,556.4628360351562,532.9833293945312,556.4628360351562,532.9833293945312,556.4628360351562Z" fill="#000000" fill-opacity="1"/></g><g><path d="M351.79485283203127,537.2716674804688C339.24585283203123,537.2716674804688,329.06915283203125,547.4483674804687,329.06915283203125,559.9973674804687C329.06915283203125,572.5462674804687,339.24585283203123,582.7230674804688,351.79485283203127,582.7230674804688C364.34375283203127,582.7230674804688,374.52045283203125,572.5462674804687,374.52045283203125,559.9973674804687C374.52045283203125,547.4483674804687,364.34375283203127,537.2716674804688,351.79485283203127,537.2716674804688C351.79485283203127,537.2716674804688,351.79485283203127,537.2716674804688,351.79485283203127,537.2716674804688ZM351.79485283203127,573.2500674804687C344.47265283203126,573.2500674804687,338.5421228320312,567.3195674804688,338.5421228320312,559.9973674804687C338.5421228320312,552.6751674804688,344.48055283203126,546.7446874804688,351.79485283203127,546.7446874804688C359.1170528320313,546.7446874804688,365.0475528320313,552.6751674804688,365.0475528320313,559.9973674804687C365.0554528320313,567.3195674804688,359.1170528320313,573.2500674804687,351.79485283203127,573.2500674804687C351.79485283203127,573.2500674804687,351.79485283203127,573.2500674804687,351.79485283203127,573.2500674804687Z" fill="#000000" fill-opacity="1"/></g><g><path d="M250.68352470703124,298.9130554199219C238.13452470703126,298.9130554199219,227.95782470703125,309.08975541992186,227.95782470703125,321.6387554199219C227.95782470703125,334.1876554199219,238.13452470703126,344.3643554199219,250.68352470703124,344.3643554199219C263.23242470703127,344.3643554199219,273.40912470703125,334.1876554199219,273.40912470703125,321.6387554199219C273.40912470703125,309.08185541992185,263.23242470703127,298.9130554199219,250.68352470703124,298.9130554199219C250.68352470703124,298.9130554199219,250.68352470703124,298.9130554199219,250.68352470703124,298.9130554199219ZM250.68352470703124,334.8914554199219C243.36132470703126,334.8914554199219,237.43079470703125,328.9609554199219,237.43079470703125,321.6387554199219C237.43079470703125,314.3165554199219,243.36922470703126,308.38602541992185,250.68352470703124,308.38602541992185C258.0057247070313,308.38602541992185,263.9362247070313,314.3165554199219,263.9362247070313,321.6387554199219C263.9441247070313,328.9530554199219,258.0057247070313,334.8914554199219,250.68352470703124,334.8914554199219C250.68352470703124,334.8914554199219,250.68352470703124,334.8914554199219,250.68352470703124,334.8914554199219Z" fill="#000000" fill-opacity="1"/></g><g><path d="M340.59003369140623,699.6409438476562C346.5991336914062,699.6409438476562,351.4705336914063,694.7695438476562,351.4705336914063,688.7604438476562C351.4705336914063,682.7513138476562,346.5991336914062,677.8799438476562,340.59003369140623,677.8799438476562C334.58090369140626,677.8799438476562,329.70953369140625,682.7513138476562,329.70953369140625,688.7604438476562C329.70953369140625,694.7695438476562,334.58090369140626,699.6409438476562,340.59003369140623,699.6409438476562C340.59003369140623,699.6409438476562,340.59003369140623,699.6409438476562,340.59003369140623,699.6409438476562Z" fill="#000000" fill-opacity="1"/></g><g><path d="M538.8744575195312,449.9193862304688C544.8835575195312,449.9193862304688,549.7549575195312,445.0479862304687,549.7549575195312,439.03888623046873C549.7549575195312,433.02975623046876,544.8835575195312,428.15838623046875,538.8744575195312,428.15838623046875C532.8653275195312,428.15838623046875,527.9939575195312,433.02975623046876,527.9939575195312,439.03888623046873C527.9939575195312,445.0479862304687,532.8653275195312,449.9193862304688,538.8744575195312,449.9193862304688C538.8744575195312,449.9193862304688,538.8744575195312,449.9193862304688,538.8744575195312,449.9193862304688Z" fill="#000000" fill-opacity="1"/></g><g><path d="M296.13495556640623,128.28858026123046C302.1440555664062,128.28858026123046,307.0154555664063,123.41718026123047,307.0154555664063,117.40808026123047C307.0154555664063,111.39895026123047,302.1440555664062,106.52758026123047,296.13495556640623,106.52758026123047C290.12582556640626,106.52758026123047,285.25445556640625,111.39895026123047,285.25445556640625,117.40808026123047C285.25445556640625,123.41718026123047,290.12582556640626,128.28858026123046,296.13495556640623,128.28858026123046C296.13495556640623,128.28858026123046,296.13495556640623,128.28858026123046,296.13495556640623,128.28858026123046Z" fill="#000000" fill-opacity="1"/></g><g><path d="M528.0018989257812,183.07061608886718C534.0109989257812,183.07061608886718,538.8823989257812,178.1992160888672,538.8823989257812,172.1901160888672C538.8823989257812,166.1809860888672,534.0109989257812,161.3096160888672,528.0018989257812,161.3096160888672C521.9927689257812,161.3096160888672,517.1213989257812,166.1809860888672,517.1213989257812,172.1901160888672C517.1213989257812,178.1992160888672,521.9927689257812,183.07061608886718,528.0018989257812,183.07061608886718C528.0018989257812,183.07061608886718,528.0018989257812,183.07061608886718,528.0018989257812,183.07061608886718Z" fill="#000000" fill-opacity="1"/></g><g><path d="M308.41514072265625,396.0151263671875C308.41514072265625,396.0151263671875,308.41514072265625,377.0770263671875,308.41514072265625,377.0770263671875C283.31724072265627,377.0770263671875,262.97174072265625,397.4226263671875,262.97174072265625,422.5205263671875C262.97174072265625,422.5205263671875,262.97174072265625,494.4850263671875,262.97174072265625,494.4850263671875C262.97174072265625,494.4850263671875,281.90974072265624,494.4850263671875,281.90974072265624,494.4850263671875C281.90974072265624,494.4850263671875,281.90974072265624,422.5205263671875,281.90974072265624,422.5205263671875C281.90184072265623,407.8840263671875,293.7707407226562,396.0151263671875,308.41514072265625,396.0151263671875C308.41514072265625,396.0151263671875,308.41514072265625,396.0151263671875,308.41514072265625,396.0151263671875Z" fill="#000000" fill-opacity="1"/></g><g><path d="M139.97016103515625,123C139.97016103515625,123,158.90806103515627,123,158.90806103515627,123C158.90806103515627,148.0979,138.56256103515625,168.4435,113.46476103515624,168.4435C113.46476103515624,168.4435,41.50006103515625,168.4435,41.50006103515625,168.4435C41.50006103515625,168.4435,41.50006103515625,149.51330000000002,41.50006103515625,149.51330000000002C41.50006103515625,149.51330000000002,113.46476103515624,149.51330000000002,113.46476103515624,149.51330000000002C128.10116103515625,149.5054,139.97016103515625,137.6444,139.97016103515625,123C139.97016103515625,123,139.97016103515625,123,139.97016103515625,123Z" fill="#000000" fill-opacity="1"/></g><g><path d="M210.01628603515624,582.3434854492187C210.01628603515624,582.3434854492187,191.07818603515625,582.3434854492187,191.07818603515625,582.3434854492187C191.07818603515625,557.2455854492188,211.42378603515624,536.9000854492188,236.52168603515625,536.9000854492188C236.52168603515625,536.9000854492188,308.48618603515627,536.9000854492188,308.48618603515627,536.9000854492188C308.48618603515627,536.9000854492188,308.48618603515627,555.8381854492187,308.48618603515627,555.8381854492187C308.48618603515627,555.8381854492187,236.52168603515625,555.8381854492187,236.52168603515625,555.8381854492187C221.87728603515626,555.8302854492188,210.01628603515624,567.6990854492187,210.01628603515624,582.3434854492187C210.01628603515624,582.3434854492187,210.01628603515624,582.3434854492187,210.01628603515624,582.3434854492187Z" fill="#000000" fill-opacity="1"/></g><g><path d="M18.9381,392.4999185546875C18.9381,392.4999185546875,0,392.4999185546875,0,392.4999185546875C0,367.4020185546875,20.3456,347.0565185546875,45.4435,347.0565185546875C45.4435,347.0565185546875,117.408,347.0565185546875,117.408,347.0565185546875C117.408,347.0565185546875,117.408,365.9946185546875,117.408,365.9946185546875C117.408,365.9946185546875,45.4435,365.9946185546875,45.4435,365.9946185546875C30.7991,365.9867185546875,18.9381,377.8555185546875,18.9381,392.4999185546875C18.9381,392.4999185546875,18.9381,392.4999185546875,18.9381,392.4999185546875Z" fill="#6DB33F" fill-opacity="1"/></g><g><path d="M197.27777822265625,654.3002319335938C197.27777822265625,654.3002319335938,216.21567822265627,654.3002319335938,216.21567822265627,654.3002319335938C216.21567822265627,679.3981319335937,195.87017822265625,699.7437319335937,170.77237822265624,699.7437319335937C170.77237822265624,699.7437319335937,98.80767822265625,699.7437319335937,98.80767822265625,699.7437319335937C98.80767822265625,699.7437319335937,98.80767822265625,680.8135319335937,98.80767822265625,680.8135319335937C98.80767822265625,680.8135319335937,170.77237822265624,680.8135319335937,170.77237822265624,680.8135319335937C185.41667822265623,680.8056319335938,197.27777822265625,668.9446319335938,197.27777822265625,654.3002319335938C197.27777822265625,654.3002319335938,197.27777822265625,654.3002319335938,197.27777822265625,654.3002319335938Z" fill="#000000" fill-opacity="1"/></g><g><path d="M216.21563720703125,626.0553485351562C216.21563720703125,626.0553485351562,216.21563720703125,607.1172485351562,216.21563720703125,607.1172485351562C241.31353720703126,607.1172485351562,261.6591372070312,627.4628485351562,261.6591372070312,652.5606485351562C261.6591372070312,652.5606485351562,261.6591372070312,724.5252485351563,261.6591372070312,724.5252485351563C261.6591372070312,724.5252485351563,242.72103720703126,724.5252485351563,242.72103720703126,724.5252485351563C242.72103720703126,724.5252485351563,242.72103720703126,652.5606485351562,242.72103720703126,652.5606485351562C242.72893720703127,637.9163485351562,230.86003720703124,626.0553485351562,216.21563720703125,626.0553485351562C216.21563720703125,626.0553485351562,216.21563720703125,626.0553485351562,216.21563720703125,626.0553485351562Z" fill="#6DB33F" fill-opacity="1"/></g><g><path d="M114.07647705078125,417.9183547851562C114.07647705078125,417.9183547851562,114.78815605078125,398.99615478515625,114.78815605078125,398.99615478515625C139.87017705078125,399.93712778515624,159.43297705078123,421.03395478515625,158.49987705078127,446.11595478515625C158.49987705078127,446.11595478515625,155.80347705078125,518.0251547851562,155.80347705078125,518.0251547851562C155.80347705078125,518.0251547851562,136.88127705078125,517.3131547851563,136.88127705078125,517.3131547851563C136.88127705078125,517.3131547851563,139.57767705078126,445.40425478515624,139.57767705078126,445.40425478515624C140.11537705078126,430.76785478515626,128.70507705078126,418.46395478515626,114.07647705078125,417.9183547851562C114.07647705078125,417.9183547851562,114.07647705078125,417.9183547851562,114.07647705078125,417.9183547851562Z" fill="#000000" fill-opacity="1"/></g><g><path d="M191.07831494140626,514.8307631835937C197.08741494140625,514.8307631835937,201.95881494140625,509.9593631835937,201.95881494140625,503.95026318359373C201.95881494140625,497.94113318359376,197.08741494140625,493.06976318359375,191.07831494140626,493.06976318359375C185.06918494140626,493.06976318359375,180.19781494140625,497.94113318359376,180.19781494140625,503.95026318359373C180.19781494140625,509.9593631835937,185.06918494140626,514.8307631835937,191.07831494140626,514.8307631835937C191.07831494140626,514.8307631835937,191.07831494140626,514.8307631835937,191.07831494140626,514.8307631835937Z" fill="#000000" fill-opacity="1"/></g><g><path d="M136.29608837890626,746.6975234375C142.30518837890625,746.6975234375,147.17658837890625,741.8261234375,147.17658837890625,735.8170234375C147.17658837890625,729.8078934375,142.30518837890625,724.9365234375,136.29608837890626,724.9365234375C130.28695837890626,724.9365234375,125.41558837890625,729.8078934375,125.41558837890625,735.8170234375C125.41558837890625,741.8261234375,130.28695837890626,746.6975234375,136.29608837890626,746.6975234375C136.29608837890626,746.6975234375,136.29608837890626,746.6975234375,136.29608837890626,746.6975234375Z" fill="#000000" fill-opacity="1"/></g></g><g><path d="M528.0018989257812,33.677357994079586C534.0109989257812,33.677357994079586,538.8823989257812,28.80595799407959,538.8823989257812,22.796857994079588C538.8823989257812,16.78772799407959,534.0109989257812,11.91635799407959,528.0018989257812,11.91635799407959C521.9927689257812,11.91635799407959,517.1213989257812,16.78772799407959,517.1213989257812,22.796857994079588C517.1213989257812,28.80595799407959,521.9927689257812,33.677357994079586,528.0018989257812,33.677357994079586C528.0018989257812,33.677357994079586,528.0018989257812,33.677357994079586,528.0018989257812,33.677357994079586Z" fill="#6DB33F" fill-opacity="1"/></g><g><path d="M561.9434610351562,614C536.8455610351563,614,516.5000610351562,634.3456,516.5000610351562,659.4435C516.5000610351562,684.5492,536.8455610351563,704.8948,561.9434610351562,704.8948C587.0413610351562,704.8948,607.3868610351562,684.5492,607.3868610351562,659.4435C607.3868610351562,634.3456,587.0413610351562,614,561.9434610351562,614C561.9434610351562,614,561.9434610351562,614,561.9434610351562,614ZM561.9434610351562,685.9567C547.2990610351562,685.9567,535.4301610351563,674.0878,535.4301610351563,659.4435C535.4301610351563,644.7991,547.2990610351562,632.9381,561.9434610351562,632.9381C576.5878610351563,632.9381,588.4567610351562,644.807,588.4567610351562,659.4435C588.4567610351562,674.0878,576.5799610351562,685.9567,561.9434610351562,685.9567C561.9434610351562,685.9567,561.9434610351562,685.9567,561.9434610351562,685.9567Z" fill="#6DB33F" fill-opacity="1"/></g></g></g></svg>