<svg xmlns="http://www.w3.org/2000/svg" xmlns:xlink="http://www.w3.org/1999/xlink" fill="none" version="1.1" width="100" height="100" viewBox="0 0 100 100"><defs><clipPath id="master_svg0_9_7"><rect x="0" y="0" width="100" height="100" rx="0"/></clipPath></defs><g clip-path="url(#master_svg0_9_7)"><g><path d="M73.7999984741211,15.899995019226074C68.39999847412109,12.799999019226075,63.2999984741211,12.299999019226075,59.49999847412109,14.499995019226073C59.2999984741211,14.600005019226074,59.099998474121094,14.800005019226074,58.89999847412109,14.899995019226074L20.999998474121092,37.400015019226075L20.799998474121093,37.50001501922607C20.699998474121095,37.50001501922607,20.699998474121095,37.60001501922608,20.599998474121094,37.60001501922608L20.199998474121095,37.80001501922607C16.699998474121095,40.10001501922608,14.799998474121093,44.50001501922607,14.799998474121093,50.400015019226075C14.799998474121093,56.70001501922607,16.999998474121092,63.60001501922608,20.599998474121094,69.80001501922607L12.099998474121094,69.80001501922607L12.099998474121094,88.00001501922607L30.299998474121093,88.00001501922607L30.299998474121093,81.40001501922607C31.499998474121092,82.40001501922607,32.89999847412109,83.30001501922608,34.2999984741211,84.10001501922608C36.99999847412109,85.80001501922608,40.099998474121094,86.70001501922607,43.2999984741211,86.80001501922608C45.199998474121095,86.80001501922608,46.99999847412109,86.40001501922607,48.599998474121094,85.40001501922607L87.5999984741211,62.30001501922607L87.5999984741211,62.20001501922607C91.2999984741211,59.900015019226075,93.2999984741211,55.400015019226075,93.2999984741211,49.400015019226075C93.2999984741211,37.20001501922607,84.5999984741211,22.100005019226074,73.7999984741211,15.899995019226074ZM28.799998474121093,80.10001501922608L28.799998474121093,86.50001501922607L13.599998474121094,86.50001501922607L13.599998474121094,71.30001501922607L28.799998474121093,71.30001501922607L28.799998474121093,80.10001501922608ZM44.599998474121094,65.60001501922608L44.599998474121094,73.60001501922608L36.599998474121094,73.60001501922608L36.599998474121094,65.60001501922608L44.599998474121094,65.60001501922608ZM39.99999847412109,42.400015019226075L39.99999847412109,38.60001501922608L51.2999984741211,38.60001501922608L51.2999984741211,49.900015019226075L46.599998474121094,49.900015019226075C44.699998474121095,47.10001501922608,42.49999847412109,44.60001501922608,39.99999847412109,42.400015019226075ZM44.89999847412109,49.900015019226075L39.99999847412109,49.900015019226075L39.99999847412109,44.400015019226075C41.7999984741211,46.10001501922608,43.39999847412109,47.900015019226075,44.89999847412109,49.900015019226075ZM26.399998474121094,57.80001501922607L26.399998474121094,51.30001501922607L32.89999847412109,51.30001501922607L32.89999847412109,57.80001501922607L26.399998474121094,57.80001501922607ZM52.49999847412109,81.40001501922607C53.89999847412109,78.70001501922607,54.699998474121095,75.60001501922608,54.599998474121094,72.50001501922608C54.599998474121094,65.60001501922608,51.89999847412109,57.900015019226075,47.699998474121095,51.30001501922607L52.7999984741211,51.30001501922607L52.7999984741211,37.10001501922608L38.49999847412109,37.10001501922608L38.49999847412109,41.20001501922607C37.39999847412109,40.400015019226075,36.2999984741211,39.60001501922608,35.099998474121094,38.900015019226075C32.39999847412109,37.20001501922607,29.199998474121095,36.30001501922607,25.999998474121092,36.20001501922607L55.49999847412109,18.699995019226073C54.099998474121094,21.399995019226075,53.39999847412109,24.400015019226075,53.49999847412109,27.500015019226076C53.49999847412109,35.400015019226075,56.99999847412109,44.30001501922607,62.2999984741211,51.400015019226075L59.49999847412109,51.400015019226075L59.49999847412109,57.900015019226075L65.9999984741211,57.900015019226075L65.9999984741211,55.70001501922607C68.0999984741211,57.80001501922607,70.39999847412109,59.70001501922607,72.89999847412109,61.20001501922607C75.5999984741211,62.900015019226075,78.69999847412109,63.80001501922607,81.89999847412109,63.900015019226075L82.0999984741211,63.900015019226075L52.49999847412109,81.40001501922607ZM91.7999984741211,49.500015019226076C91.7999984741211,55.10001501922608,89.89999847412109,59.20001501922607,86.5999984741211,61.10001501922608C83.2999984741211,63.000015019226076,78.5999984741211,62.60001501922608,73.7999984741211,59.70001501922607C70.89999847412109,58.000015019226076,68.2999984741211,55.900015019226075,66.0999984741211,53.400015019226075L66.0999984741211,51.30001501922607L64.2999984741211,51.30001501922607C58.7999984741211,44.30001501922607,55.099998474121094,35.30001501922607,55.099998474121094,27.400015019226075C55.099998474121094,22.200005019226076,56.7999984741211,18.299995019226074,59.699998474121095,16.200005019226076L60.89999847412109,15.500005019226075C62.099998474121094,14.900005019226075,63.49999847412109,14.600005019226074,64.89999847412109,14.600005019226074C67.7999984741211,14.700005019226074,70.5999984741211,15.600005019226074,73.0999984741211,17.100005019226074C83.39999847412109,23.100005019226074,91.7999984741211,37.70001501922607,91.7999984741211,49.500015019226076Z" fill="#FFFFFF" fill-opacity="1"/></g><g><rect x="38.099998474121094" y="67.0999984741211" width="5" height="5" rx="0" fill="#FFFFFF" fill-opacity="1"/></g><g><rect x="3.299999952316284" y="61.900001525878906" width="6.5" height="6.5" rx="0" fill="#FFFFFF" fill-opacity="1"/></g><g><path d="M62.5,37.20000076293945L70.5,37.20000076293945L70.5,29.200000762939453L62.5,29.200000762939453L62.5,37.20000076293945ZM64,30.700000762939453L69,30.700000762939453L69,35.70000076293945L64,35.70000076293945L64,30.700000762939453Z" fill="#FFFFFF" fill-opacity="1"/></g><g><rect x="92.80000305175781" y="25" width="3.200000047683716" height="3.200000047683716" rx="0" fill="#FFFFFF" fill-opacity="1"/></g><g><rect x="77.5999984741211" y="38.29999923706055" width="3.200000047683716" height="3.200000047683716" rx="0" fill="#FFFFFF" fill-opacity="1"/></g><g><rect x="86.0999984741211" y="42.29999923706055" width="3.200000047683716" height="3.200000047683716" rx="0" fill="#FFFFFF" fill-opacity="1"/></g><g><rect x="74.30000305175781" y="47.400001525878906" width="3.200000047683716" height="3.200000047683716" rx="0" fill="#FFFFFF" fill-opacity="1"/></g><g></g></g></svg>