<svg xmlns="http://www.w3.org/2000/svg" xmlns:xlink="http://www.w3.org/1999/xlink" fill="none" version="1.1" width="261" height="82" viewBox="0 0 261 82"><defs><linearGradient x1="1" y1="0" x2="1.7763568394002505e-15" y2="1.0000001192092896" id="master_svg0_9_06211"><stop offset="0%" stop-color="#67BD5C" stop-opacity="1"/><stop offset="100%" stop-color="#B6CE3B" stop-opacity="1"/></linearGradient><linearGradient x1="1" y1="0" x2="1.7763568394002505e-15" y2="1.0000001192092896" id="master_svg1_9_06211"><stop offset="0%" stop-color="#67BD5C" stop-opacity="1"/><stop offset="100%" stop-color="#B6CE3B" stop-opacity="1"/></linearGradient><linearGradient x1="1" y1="0" x2="1.7763568394002505e-15" y2="1.0000001192092896" id="master_svg2_9_06211"><stop offset="0%" stop-color="#67BD5C" stop-opacity="1"/><stop offset="100%" stop-color="#B6CE3B" stop-opacity="1"/></linearGradient><clipPath id="master_svg3_9_06337/9_06180"><rect x="14" y="11" width="233" height="66" rx="0"/></clipPath></defs><g><g><g><g><g><path d="M31.3521,21L1.61178,81L171.648,81L201.388,21L31.3521,21ZM201.884,20L203,20L202.504,21L172.268,82L0,82L0.495673,81L30.7317,20L201.884,20Z" fill-rule="evenodd" fill="url(#master_svg0_9_06211)" fill-opacity="1"/></g></g><g><g><path d="M89.35210000000001,1L59.61178,61L229.648,61L259.38800000000003,1L89.35210000000001,1ZM259.884,0L261,0L260.504,1L230.268,62L58,62L58.495673,61L88.7317,0L259.884,0Z" fill-rule="evenodd" fill="url(#master_svg1_9_06211)" fill-opacity="1"/></g></g><g><g><path d="M44.731700000000004,10L247,10L216.268,72L14,72L44.731700000000004,10Z" fill-rule="evenodd" fill="#1B1F23" fill-opacity="1"/><path d="M47.8339,15L22.058889999999998,67L213.166,67L238.941,15L47.8339,15ZM241.419,10L247,10L244.522,15L216.268,72L14,72L44.731700000000004,10L241.419,10Z" fill-rule="evenodd" fill="url(#master_svg2_9_06211)" fill-opacity="1"/></g></g><g><g><path d="M44.3275,4C44.3275,4,49,4,49,4C49,4,32.67248,38,32.67248,38C32.67248,38,28,38,28,38C28,38,44.3275,4,44.3275,4C44.3275,4,44.3275,4,44.3275,4Z" fill="#FFFFFF" fill-opacity="1"/><path d="M32.67248,38L47.0791,8L49,4L44.3275,4L29.92088,34L28,38L32.67248,38Z" fill-rule="evenodd" fill="#FFFFFF" fill-opacity="1"/></g><g><path d="M35.3275,4C35.3275,4,40,4,40,4C40,4,23.67248,38,23.67248,38C23.67248,38,19,38,19,38C19,38,35.3275,4,35.3275,4C35.3275,4,35.3275,4,35.3275,4Z" fill="#FFFFFF" fill-opacity="1"/><path d="M23.67248,38L38.0791,8L40,4L35.3275,4L20.92088,34L19,38L23.67248,38Z" fill-rule="evenodd" fill="#FFFFFF" fill-opacity="1"/></g><g><path d="M26.3275,4C26.3275,4,31,4,31,4C31,4,14.67248,38,14.67248,38C14.67248,38,10,38,10,38C10,38,26.3275,4,26.3275,4C26.3275,4,26.3275,4,26.3275,4Z" fill="#FFFFFF" fill-opacity="1"/><path d="M14.67248,38L29.0791,8L31,4L26.3275,4L11.92088,34L10,38L14.67248,38Z" fill-rule="evenodd" fill="#FFFFFF" fill-opacity="1"/></g></g><g><g><path d="M236.3275,44C236.3275,44,241,44,241,44C241,44,224.67248,78,224.67248,78C224.67248,78,220,78,220,78C220,78,236.3275,44,236.3275,44C236.3275,44,236.3275,44,236.3275,44Z" fill="#FFFFFF" fill-opacity="1"/><path d="M224.67248,78L239.0791,48L241,44L236.3275,44L221.92088,74L220,78L224.67248,78Z" fill-rule="evenodd" fill="#FFFFFF" fill-opacity="1"/></g><g><path d="M227.3275,44C227.3275,44,232,44,232,44C232,44,215.67248,78,215.67248,78C215.67248,78,211,78,211,78C211,78,227.3275,44,227.3275,44C227.3275,44,227.3275,44,227.3275,44Z" fill="#FFFFFF" fill-opacity="1"/><path d="M215.67248,78L230.0791,48L232,44L227.3275,44L212.92088,74L211,78L215.67248,78Z" fill-rule="evenodd" fill="#FFFFFF" fill-opacity="1"/></g><g><path d="M218.3275,44C218.3275,44,223,44,223,44C223,44,206.67248,78,206.67248,78C206.67248,78,202,78,202,78C202,78,218.3275,44,218.3275,44C218.3275,44,218.3275,44,218.3275,44Z" fill="#FFFFFF" fill-opacity="1"/><path d="M206.67248,78L221.0791,48L223,44L218.3275,44L203.92088,74L202,78L206.67248,78Z" fill-rule="evenodd" fill="#FFFFFF" fill-opacity="1"/></g></g></g><g clip-path="url(#master_svg3_9_06337/9_06180)"><g><path d="M55.8724,49.464Q55.06836,49.464,54.29818,49.464Q53.528,49.464,52.83398,49.3624Q52.13997,49.2524,51.572919999999996,49.1509Q51.00586,49.040800000000004,50.625,48.9054L50.625,45.9855Q51.03125,46.1463,51.61523,46.2817Q52.207679999999996,46.417100000000005,52.88477,46.5272Q53.57031,46.628699999999995,54.29818,46.6964Q55.03451,46.755700000000004,55.75391,46.755700000000004Q57.60742,46.755700000000004,58.39453,46.2225Q59.1901,45.6893,59.1901,44.3012Q59.1901,43.6834,59.0462,43.2518Q58.90234,42.8201,58.51302,42.4985Q58.1237,42.1684,57.42969,41.923Q56.74414,41.6691,55.62695,41.381299999999996Q54.18815,41.0428,53.24023,40.6535Q52.292320000000004,40.255700000000004,51.708330000000004,39.6717Q51.12435,39.0877,50.87044,38.2667Q50.625,37.4373,50.625,36.2439Q50.625,33.4764,52.25,32.26608Q53.875,31.047330000000002,57.01497,31.047330000000002Q58.4707,31.047330000000002,59.6895,31.233530000000002Q60.9167,31.41973,61.6191,31.66517L61.6191,34.4412Q61.2552,34.3058,60.7389,34.1958Q60.2227,34.0773,59.6133,33.9757Q59.0039,33.865700000000004,58.35221,33.8149Q57.70898,33.7557,57.13346,33.7557Q55.5,33.7557,54.73828,34.2042Q53.97656,34.6443,53.97656,35.99Q53.97656,36.506299999999996,54.07812,36.8618Q54.17969,37.2088,54.52669,37.4881Q54.88216,37.7589,55.52539,37.9959Q56.177080000000004,38.2244,57.23503,38.4868Q58.81771,38.8761,59.8418,39.316199999999995Q60.865899999999996,39.756299999999996,61.4583,40.408Q62.0508,41.0597,62.2962,41.9653Q62.5417,42.8709,62.5417,44.1404Q62.5417,46.789500000000004,60.9505,48.1268Q59.3594,49.464,55.8724,49.464ZM73.91669999999999,34.839Q75.584,34.839,76.6589,35.3637Q77.7422,35.8885,78.36,36.8449Q78.9779,37.7928,79.2064,39.1554Q79.4349,40.5096,79.4349,42.1515Q79.4349,43.6411,79.2064,44.978300000000004Q78.9779,46.3071,78.36,47.3143Q77.7422,48.313,76.6589,48.8885Q75.584,49.464,73.91669999999999,49.464Q72.0124,49.464,71.0645,48.846199999999996Q70.1165,48.228300000000004,69.6849,47.1704L69.6849,54.880700000000004L66.33330000000001,54.880700000000004L66.33330000000001,34.839L69.6849,34.839L69.6849,37.0988Q70.1165,36.150800000000004,71.0729,35.4992Q72.0378,34.839,73.91669999999999,34.839ZM73.0026,46.908Q74.0267,46.908,74.6445,46.518699999999995Q75.2624,46.1209,75.5755,45.4777Q75.8887,44.826,75.98179999999999,43.9627Q76.08330000000001,43.0994,76.08330000000001,42.16Q76.08330000000001,41.1528,75.98179999999999,40.289500000000004Q75.8887,39.4178,75.5586,38.7745Q75.237,38.1229,74.6191,37.7589Q74.0013,37.394999999999996,73.0026,37.394999999999996Q71.9785,37.394999999999996,71.3014,37.7166Q70.6243,38.0382,70.2266,38.6476Q69.8288,39.257000000000005,69.65950000000001,40.1541Q69.4987,41.0512,69.4987,42.16Q69.4987,43.2518,69.65950000000001,44.1235Q69.8288,44.9868,70.2266,45.6131Q70.6243,46.2309,71.3014,46.569500000000005Q71.9785,46.908,73.0026,46.908ZM90.70830000000001,34.839L90.70830000000001,38.089L90.3783,38.089Q89.72659999999999,38.089,89.1172,38.2244Q88.5078,38.3514,87.97460000000001,38.6984Q87.4499,39.0454,87.0436,39.6378Q86.64580000000001,40.2218,86.47659999999999,41.1274L86.47659999999999,49.464L83.125,49.464L83.125,34.839L86.47659999999999,34.839L86.47659999999999,37.928200000000004Q86.77279999999999,36.9718,87.20439999999999,36.3709Q87.6445,35.7615,88.16929999999999,35.423Q88.7025,35.076,89.27799999999999,34.957499999999996Q89.8535,34.839,90.4375,34.839L90.70830000000001,34.839ZM94.77080000000001,33.214Q94.2122,33.214,93.8483,33.1632Q93.4928,33.104,93.2559,32.89239Q93.0273,32.6808,92.9512,32.31686Q92.875,31.952930000000002,92.875,31.3097Q92.875,30.65801,92.9512,30.27715Q93.0273,29.89629,93.2559,29.71856Q93.4928,29.54082,93.8483,29.48158Q94.2122,29.42233,94.77080000000001,29.42233Q95.33789999999999,29.42233,95.6934,29.48158Q96.0573,29.54082,96.2858,29.71856Q96.51429999999999,29.89629,96.59049999999999,30.27715Q96.66669999999999,30.65801,96.66669999999999,31.3097Q96.66669999999999,31.952930000000002,96.59049999999999,32.31686Q96.51429999999999,32.6808,96.2858,32.89239Q96.0573,33.104,95.6934,33.1632Q95.33789999999999,33.214,94.77080000000001,33.214ZM92.875,34.839L96.22659999999999,34.839L96.22659999999999,49.464L92.875,49.464L92.875,34.839ZM108.2279,34.839Q109.5651,34.839,110.4622,35.1606Q111.3594,35.4822,111.90100000000001,36.0916Q112.4512,36.701,112.6797,37.5981Q112.91669999999999,38.4868,112.91669999999999,39.629400000000004L112.91669999999999,49.464L109.5651,49.464L109.5651,40.3995Q109.5651,38.8592,109.09960000000001,38.131299999999996Q108.6426,37.394999999999996,107.18690000000001,37.394999999999996Q105.9596,37.394999999999996,105.0964,37.8689Q104.2415,38.3429,103.8099,39.7225L103.8099,49.464L100.45830000000001,49.464L100.45830000000001,34.839L103.8099,34.839L103.8099,36.6841Q104.4023,35.693799999999996,105.5872,35.2706Q106.7721,34.839,108.2279,34.839ZM129.7083,34.839L129.7083,48.3553Q129.7083,49.8703,129.2936,51.0721Q128.8874,52.282399999999996,127.9818,53.1372Q127.0762,53.992000000000004,125.6289,54.4321Q124.1816,54.880700000000004,122.0827,54.880700000000004Q121.1263,54.880700000000004,120.0599,54.7791Q118.9935,54.677499999999995,118.1979,54.542100000000005L118.1979,51.9015Q119.0189,52.129999999999995,119.9837,52.2231Q120.9486,52.3247,121.8626,52.3247Q124.2155,52.3247,125.2819,51.4022Q126.3568,50.4881,126.3568,48.2114L126.3568,47.1535Q125.8997,48.2453,124.918,48.854600000000005Q123.9362,49.464,121.9727,49.464Q120.2376,49.464,119.1035,48.930800000000005Q117.9779,48.3976,117.3177,47.441199999999995Q116.666,46.4848,116.4121,45.1476Q116.1667,43.8019,116.1667,42.1515Q116.1667,40.6619,116.4121,39.3331Q116.666,38.004400000000004,117.3177,37.0141Q117.9779,36.0154,119.1035,35.4314Q120.2376,34.839,121.9727,34.839Q122.9629,34.839,123.6992,35.0167Q124.4356,35.186,124.9603,35.490700000000004Q125.485,35.7869,125.8151,36.227000000000004Q126.1452,36.658699999999996,126.3568,37.1834L126.3568,34.839L129.7083,34.839ZM122.7767,46.908Q123.9108,46.908,124.6387,46.5864Q125.375,46.2648,125.7813,45.6469Q126.1875,45.0291,126.3314,44.1489Q126.4837,43.2602,126.4837,42.1261Q126.4837,41.0343,126.3314,40.171Q126.1875,39.2993,125.7813,38.6814Q125.375,38.055099999999996,124.6387,37.7251Q123.9108,37.394999999999996,122.7767,37.394999999999996Q121.668,37.394999999999996,121.0247,37.7928Q120.39,38.1821,120.043,38.8338Q119.696,39.477000000000004,119.6029,40.3403Q119.5182,41.1951,119.5182,42.1261Q119.5182,43.1333,119.6198,43.9966Q119.7298,44.8514,120.0684,45.5115Q120.4154,46.1717,121.0501,46.5441Q121.6934,46.908,122.7767,46.908ZM140.5417,31.047330000000002L146.0514,31.047330000000002L149.674,41.9314L149.826,41.9314L153.559,31.047330000000002L158.958,31.047330000000002L158.958,49.464L155.607,49.464L155.607,34.4412L155.454,34.4412L151.477,45.7485L147.9134,45.7485L143.89319999999998,34.4412L143.89319999999998,49.464L140.5417,49.464L140.5417,31.047330000000002ZM168.962,49.464Q167.346,49.464,166.09300000000002,49.1255Q164.841,48.7869,163.977,47.957499999999996Q163.114,47.1196,162.65699999999998,45.706199999999995Q162.208,44.2928,162.208,42.1515Q162.208,40.0102,162.65699999999998,38.6053Q163.114,37.191900000000004,163.977,36.3624Q164.841,35.5245,166.09300000000002,35.186Q167.346,34.839,168.962,34.839Q170.587,34.839,171.848,35.186Q173.118,35.5245,173.973,36.3624Q174.836,37.191900000000004,175.293,38.6053Q175.75,40.0102,175.75,42.1515Q175.75,44.2928,175.293,45.706199999999995Q174.836,47.1196,173.973,47.957499999999996Q173.118,48.7869,171.848,49.1255Q170.587,49.464,168.962,49.464ZM168.962,46.908Q169.961,46.908,170.613,46.671Q171.273,46.4341,171.662,45.892399999999995Q172.06,45.3507,172.22899999999998,44.4451Q172.398,43.531099999999995,172.398,42.16Q172.398,40.8227,172.22899999999998,39.9002Q172.06,38.9777,171.654,38.4191Q171.247,37.8605,170.587,37.632Q169.936,37.394999999999996,168.962,37.394999999999996Q167.997,37.394999999999996,167.337,37.632Q166.686,37.8605,166.288,38.4191Q165.898,38.9777,165.72899999999998,39.9002Q165.56,40.8227,165.56,42.16Q165.56,43.531099999999995,165.72899999999998,44.4451Q165.898,45.3507,166.305,45.892399999999995Q166.711,46.4341,167.363,46.671Q168.023,46.908,168.962,46.908ZM186.77,34.839Q188.107,34.839,189.004,35.1606Q189.901,35.4822,190.443,36.0916Q190.993,36.701,191.221,37.5981Q191.458,38.4868,191.458,39.629400000000004L191.458,49.464L188.107,49.464L188.107,40.3995Q188.107,38.8592,187.641,38.131299999999996Q187.184,37.394999999999996,185.729,37.394999999999996Q184.501,37.394999999999996,183.638,37.8689Q182.783,38.3429,182.352,39.7225L182.352,49.464L179,49.464L179,34.839L182.352,34.839L182.352,36.6841Q182.944,35.693799999999996,184.129,35.2706Q185.314,34.839,186.77,34.839ZM201.462,49.464Q199.846,49.464,198.593,49.1255Q197.341,48.7869,196.477,47.957499999999996Q195.614,47.1196,195.157,45.706199999999995Q194.708,44.2928,194.708,42.1515Q194.708,40.0102,195.157,38.6053Q195.614,37.191900000000004,196.477,36.3624Q197.341,35.5245,198.593,35.186Q199.846,34.839,201.462,34.839Q203.087,34.839,204.348,35.186Q205.618,35.5245,206.473,36.3624Q207.336,37.191900000000004,207.793,38.6053Q208.25,40.0102,208.25,42.1515Q208.25,44.2928,207.793,45.706199999999995Q207.336,47.1196,206.473,47.957499999999996Q205.618,48.7869,204.348,49.1255Q203.087,49.464,201.462,49.464ZM201.462,46.908Q202.461,46.908,203.113,46.671Q203.773,46.4341,204.162,45.892399999999995Q204.56,45.3507,204.729,44.4451Q204.898,43.531099999999995,204.898,42.16Q204.898,40.8227,204.729,39.9002Q204.56,38.9777,204.154,38.4191Q203.747,37.8605,203.087,37.632Q202.436,37.394999999999996,201.462,37.394999999999996Q200.497,37.394999999999996,199.837,37.632Q199.186,37.8605,198.788,38.4191Q198.398,38.9777,198.229,39.9002Q198.06,40.8227,198.06,42.16Q198.06,43.531099999999995,198.229,44.4451Q198.398,45.3507,198.805,45.892399999999995Q199.211,46.4341,199.863,46.671Q200.523,46.908,201.462,46.908Z" fill="#FFFFFF" fill-opacity="1"/></g></g></g></g></svg>